<?xml version="1.0" encoding="UTF-8" standalone="no"?>
<!-- Generator: Adobe Illustrator 16.2.1, SVG Export Plug-In . SVG Version: 6.00 Build 0)  -->

<svg
   xmlns:dc="http://purl.org/dc/elements/1.1/"
   xmlns:cc="http://creativecommons.org/ns#"
   xmlns:rdf="http://www.w3.org/1999/02/22-rdf-syntax-ns#"
   xmlns:svg="http://www.w3.org/2000/svg"
   xmlns="http://www.w3.org/2000/svg"
   xmlns:sodipodi="http://sodipodi.sourceforge.net/DTD/sodipodi-0.dtd"
   xmlns:inkscape="http://www.inkscape.org/namespaces/inkscape"
   version="1.1"
   id="Layer_1"
   x="0px"
   y="0px"
   width="24"
   height="24"
   viewBox="0 0 24 24"
   xml:space="preserve"
   inkscape:version="0.48.4 r9939"
   sodipodi:docname="results (copy).svg"><metadata
     id="metadata13"><rdf:RDF><cc:Work
         rdf:about=""><dc:format>image/svg+xml</dc:format><dc:type
           rdf:resource="http://purl.org/dc/dcmitype/StillImage" /></cc:Work></rdf:RDF></metadata><defs
     id="defs11" /><sodipodi:namedview
     pagecolor="#ffffff"
     bordercolor="#666666"
     borderopacity="1"
     objecttolerance="10"
     gridtolerance="10"
     guidetolerance="10"
     inkscape:pageopacity="0"
     inkscape:pageshadow="2"
     inkscape:window-width="1462"
     inkscape:window-height="951"
     id="namedview9"
     showgrid="false"
     inkscape:zoom="16"
     inkscape:cx="0.35772661"
     inkscape:cy="4.6576913"
     inkscape:window-x="0"
     inkscape:window-y="25"
     inkscape:window-maximized="0"
     inkscape:current-layer="Layer_1" /><style
     type="text/css"
     id="style3">
	.st0{fill:none;}
</style><polyline
     class="st0"
     points="80,112 80,176 432,176 432,112 "
     id="polyline5"
     style="fill:none"
     transform="translate(0,-488)" /><path
     style="fill:#ffffff;fill-opacity:1"
     d="M 7.5 1 C 6.6776486 1 6 1.6776486 6 2.5 L 6 3 L 3.5 3 C 2.6776487 3 2 3.6776487 2 4.5 L 2 20.5 C 2 21.322351 2.6776487 22 3.5 22 L 16.5 22 C 17.322351 22 18 21.322351 18 20.5 L 18 16.96875 L 17 18.25 L 17 20.5 C 17 20.785649 16.785649 21 16.5 21 L 14.84375 21 L 14.21875 21.8125 L 13.5 21 L 3.5 21 C 3.2143513 21 3 20.785649 3 20.5 L 3 4.5 C 3 4.2143514 3.2143513 4 3.5 4 L 6 4 L 6 4.5 C 6 5.3223514 6.6776486 6 7.5 6 L 12.5 6 C 13.322351 6 14 5.3223514 14 4.5 L 14 4 L 16.5 4 C 16.785649 4 17 4.2143514 17 4.5 L 17 13.375 L 18 12.09375 L 18 4.5 C 18 3.6776487 17.322351 3 16.5 3 L 14 3 L 14 2.5 C 14 1.6776486 13.322351 1 12.5 1 L 7.5 1 z M 5 8 L 5 9 L 14 9 L 14 8 L 5 8 z M 5 11 L 5 12 L 14 12 L 14 11 L 5 11 z M 5 14 L 5 15 L 9.40625 15 L 10.5 14 L 5 14 z M 11.1875 14 L 12.09375 15 L 14 15 L 14 14 L 11.1875 14 z M 5 17 L 5 18 L 10.78125 18 L 9.84375 17 L 5 17 z M 13.90625 17 L 14 17.09375 L 14 17 L 13.90625 17 z "
     id="path3758" /><path
     style="font-size:medium;font-style:normal;font-variant:normal;font-weight:normal;font-stretch:normal;text-indent:0;text-align:start;text-decoration:none;line-height:normal;letter-spacing:normal;word-spacing:normal;text-transform:none;direction:ltr;block-progression:tb;writing-mode:lr-tb;text-anchor:start;baseline-shift:baseline;color:#000000;fill:#ffffff;fill-opacity:1;stroke:none;stroke-width:2;marker:none;visibility:visible;display:inline;overflow:visible;enable-background:accumulate;font-family:Sans;-inkscape-font-specification:Sans"
     d="m 20.9375,9.125 -6.875,8.78125 -3.25,-3.59375 -1.46875,1.34375 4.0625,4.5 0.78125,0.875 0.75,-0.9375 L 22.5,10.375 20.9375,9.125 z"
     id="path3776"
     inkscape:connector-curvature="0" /><path
     inkscape:connector-curvature="0"
     id="path3780"
     d="m 45,8 0,1 9,0 0,-1 -9,0 z"
     style="fill:#000000;fill-opacity:1" /><rect
     ry="0.99999994"
     rx="1"
     y="3.5"
     x="42.5"
     height="18"
     width="15"
     id="rect3782"
     style="fill:none;stroke:#000000;stroke-width:0.99999988;stroke-miterlimit:4;stroke-opacity:1;stroke-dasharray:none" /><rect
     ry="1"
     rx="1"
     y="1.5"
     x="46.5"
     height="4"
     width="7.0000005"
     id="rect3784"
     style="fill:none;stroke:#000000;stroke-width:0.99999994;stroke-linecap:round;stroke-linejoin:round;stroke-miterlimit:4;stroke-opacity:1;stroke-dasharray:none" /><path
     style="fill:#000000;fill-opacity:1"
     d="m 45,11 0,1 9,0 0,-1 -9,0 z"
     id="path3786"
     inkscape:connector-curvature="0" /><path
     inkscape:connector-curvature="0"
     id="path3788"
     d="m 45,14 0,1 9,0 0,-1 -9,0 z"
     style="fill:#000000;fill-opacity:1" /><path
     style="fill:#000000;fill-opacity:1"
     d="m 45,17 0,1 9,0 0,-1 -9,0 z"
     id="path3790"
     inkscape:connector-curvature="0" /><path
     style="fill:none;stroke:#ffffff;stroke-width:3;stroke-linecap:butt;stroke-linejoin:miter;stroke-miterlimit:4;stroke-opacity:1;stroke-dasharray:none"
     d="m 49.763772,14.671889 4.375762,4.800698 7.579951,-9.720116"
     id="path3792"
     inkscape:connector-curvature="0"
     sodipodi:nodetypes="ccc" /><path
     sodipodi:nodetypes="ccc"
     inkscape:connector-curvature="0"
     id="path3794"
     d="m 50.076272,14.984389 4.063262,4.488198 7.579951,-9.720116"
     style="fill:none;stroke:#000000;stroke-width:2;stroke-linecap:butt;stroke-linejoin:miter;stroke-miterlimit:4;stroke-opacity:1;stroke-dasharray:none" /></svg>