<?xml version="1.0" encoding="UTF-8" standalone="no"?>
<!-- Generator: Adobe Illustrator 16.2.1, SVG Export Plug-In . SVG Version: 6.00 Build 0)  -->

<svg
   xmlns:dc="http://purl.org/dc/elements/1.1/"
   xmlns:cc="http://creativecommons.org/ns#"
   xmlns:rdf="http://www.w3.org/1999/02/22-rdf-syntax-ns#"
   xmlns:svg="http://www.w3.org/2000/svg"
   xmlns="http://www.w3.org/2000/svg"
   xmlns:sodipodi="http://sodipodi.sourceforge.net/DTD/sodipodi-0.dtd"
   xmlns:inkscape="http://www.inkscape.org/namespaces/inkscape"
   version="1.1"
   id="Layer_1"
   x="0px"
   y="0px"
   width="24"
   height="24"
   viewBox="0 0 24 24"
   xml:space="preserve"
   inkscape:version="0.48.4 r9939"
   sodipodi:docname="results3.svg"><metadata
     id="metadata13"><rdf:RDF><cc:Work
         rdf:about=""><dc:format>image/svg+xml</dc:format><dc:type
           rdf:resource="http://purl.org/dc/dcmitype/StillImage" /><dc:title></dc:title></cc:Work></rdf:RDF></metadata><defs
     id="defs11" /><sodipodi:namedview
     pagecolor="#ffffff"
     bordercolor="#666666"
     borderopacity="1"
     objecttolerance="10"
     gridtolerance="10"
     guidetolerance="10"
     inkscape:pageopacity="0"
     inkscape:pageshadow="2"
     inkscape:window-width="1462"
     inkscape:window-height="951"
     id="namedview9"
     showgrid="false"
     inkscape:zoom="5.6568543"
     inkscape:cx="-14.64618"
     inkscape:cy="-13.361873"
     inkscape:window-x="0"
     inkscape:window-y="25"
     inkscape:window-maximized="0"
     inkscape:current-layer="Layer_1" /><style
     type="text/css"
     id="style3">
	.st0{fill:none;}
</style><polyline
     class="st0"
     points="80,112 80,176 432,176 432,112 "
     id="polyline5"
     style="fill:none"
     transform="translate(0,-488)" /><path
     inkscape:connector-curvature="0"
     id="path3780"
     d="m 85,8 0,1 9,0 0,-1 -9,0 z"
     style="fill:#000000;fill-opacity:1" /><rect
     ry="0.99999994"
     rx="1"
     y="3.5"
     x="82.5"
     height="18"
     width="15"
     id="rect3782"
     style="fill:none;stroke:#000000;stroke-width:0.99999988;stroke-miterlimit:4;stroke-opacity:1;stroke-dasharray:none" /><rect
     ry="1"
     rx="1"
     y="1.5"
     x="86.5"
     height="4"
     width="7.0000005"
     id="rect3784"
     style="fill:none;stroke:#000000;stroke-width:0.99999994;stroke-linecap:round;stroke-linejoin:round;stroke-miterlimit:4;stroke-opacity:1;stroke-dasharray:none" /><path
     style="fill:#000000;fill-opacity:1"
     d="m 85,11 0,1 9,0 0,-1 -9,0 z"
     id="path3786"
     inkscape:connector-curvature="0" /><path
     inkscape:connector-curvature="0"
     id="path3788"
     d="m 85,14 0,1 9,0 0,-1 -9,0 z"
     style="fill:#000000;fill-opacity:1" /><path
     style="fill:#000000;fill-opacity:1"
     d="m 85,17 0,1 9,0 0,-1 -9,0 z"
     id="path3790"
     inkscape:connector-curvature="0" /><path
     style="fill:none;stroke:#ffffff;stroke-width:3;stroke-linecap:butt;stroke-linejoin:miter;stroke-miterlimit:4;stroke-opacity:1;stroke-dasharray:none"
     d="m 89.763772,14.671889 4.375762,4.800698 7.579946,-9.720116"
     id="path3792"
     inkscape:connector-curvature="0"
     sodipodi:nodetypes="ccc" /><path
     sodipodi:nodetypes="ccc"
     inkscape:connector-curvature="0"
     id="path3794"
     d="m 90.076272,14.984389 4.063262,4.488198 7.579946,-9.720116"
     style="fill:none;stroke:#000000;stroke-width:2;stroke-linecap:butt;stroke-linejoin:miter;stroke-miterlimit:4;stroke-opacity:1;stroke-dasharray:none" /><path
     style="fill:#000000;fill-opacity:1"
     d="m -32.5,-39 c -0.822351,0 -1.5,0.677649 -1.5,1.5 l 0,0.5 -2.5,0 c -0.822351,0 -1.5,0.677649 -1.5,1.5 l 0,16 c 0,0.822351 0.677649,1.5 1.5,1.5 l 13,0 c 0.822351,0 1.5,-0.677649 1.5,-1.5 l 0,-3.8125 -1,1.28125 0,2.53125 c 0,0.285649 -0.214351,0.5 -0.5,0.5 l -1.875,0 c -0.291667,0 -0.583333,0 -0.875,0 l -10.25,0 c -0.285649,0 -0.5,-0.214351 -0.5,-0.5 l 0,-16 c 0,-0.285649 0.214351,-0.5 0.5,-0.5 l 2.5,0 0,0.5 c 0,0.822351 0.677649,1.5 1.5,1.5 l 5,0 c 0.822351,0 1.5,-0.677649 1.5,-1.5 l 0,-0.5 2.5,0 c 0.285649,0 0.5,0.214351 0.5,0.5 l 0,7 1,-1.28125 0,-5.71875 c 0,-0.822351 -0.677649,-1.5 -1.5,-1.5 l -2.5,0 0,-0.5 c 0,-0.822351 -0.677649,-1.5 -1.5,-1.5 z m -2.5,7 0,2 9,0 0,-2 z m 0,4 0,2 3.625,0 2.1875,-2 z m 5.9375,0 1.84375,2 1.21875,0 0,-2 z m -5.9375,4 0,2 6,0 -1.84375,-2 z"
     id="path3012"
     inkscape:connector-curvature="0"
     sodipodi:nodetypes="sscssssssccssccsssscsssscssccsscssscccccccccccccccccccc" /><path
     style="font-size:medium;font-style:normal;font-variant:normal;font-weight:normal;font-stretch:normal;text-indent:0;text-align:start;text-decoration:none;line-height:normal;letter-spacing:normal;word-spacing:normal;text-transform:none;direction:ltr;block-progression:tb;writing-mode:lr-tb;text-anchor:start;baseline-shift:baseline;color:#000000;fill:#000000;fill-opacity:1;stroke:none;stroke-width:2;marker:none;visibility:visible;display:inline;overflow:visible;enable-background:accumulate;font-family:Sans;-inkscape-font-specification:Sans"
     d="m -19.09375,-31.90625 -6.875,8.78125 -3.25,-3.59375 -1.46875,1.34375 4.0625,4.5 0.78125,0.875 0.75,-0.9375 7.5625,-9.71875 -1.5625,-1.25 z"
     id="path3026"
     inkscape:connector-curvature="0" /><path
     sodipodi:nodetypes="ccccc"
     inkscape:connector-curvature="0"
     id="path3800"
     d="m 5,48 0,2 9,0 0,-2 z"
     style="fill:#000000;fill-opacity:1" /><rect
     ry="0.99999994"
     rx="1"
     y="43.5"
     x="2.5"
     height="18"
     width="15"
     id="rect3802"
     style="fill:none;stroke:#000000;stroke-width:0.99999988;stroke-miterlimit:4;stroke-opacity:1;stroke-dasharray:none" /><rect
     ry="1"
     rx="1"
     y="41.5"
     x="6.5"
     height="4"
     width="7.0000005"
     id="rect3804"
     style="fill:none;stroke:#000000;stroke-width:0.99999994;stroke-linecap:round;stroke-linejoin:round;stroke-miterlimit:4;stroke-opacity:1;stroke-dasharray:none" /><path
     style="fill:#000000;fill-opacity:1"
     d="m 5,52 0,2 9,0 0,-2 z"
     id="path3806"
     inkscape:connector-curvature="0"
     sodipodi:nodetypes="ccccc" /><path
     sodipodi:nodetypes="ccccc"
     inkscape:connector-curvature="0"
     id="path3808"
     d="m 5,56 0,2 9,0 0,-2 z"
     style="fill:#000000;fill-opacity:1" /><path
     style="fill:none;stroke:#ffffff;stroke-width:4;stroke-linecap:butt;stroke-linejoin:miter;stroke-miterlimit:4;stroke-opacity:1;stroke-dasharray:none"
     d="m 9.388772,53.296889 4.719512,5.144448 7.579951,-9.720116"
     id="path3810"
     inkscape:connector-curvature="0"
     sodipodi:nodetypes="ccc" /><path
     sodipodi:nodetypes="ccc"
     inkscape:connector-curvature="0"
     id="path3812"
     d="m 10.045022,53.953139 4.063262,4.488198 7.579951,-9.720116"
     style="fill:none;stroke:#000000;stroke-width:2;stroke-linecap:butt;stroke-linejoin:miter;stroke-miterlimit:4;stroke-opacity:1;stroke-dasharray:none" /><path
     style="fill:#ff0000;fill-opacity:1"
     d="M 47.5,41 C 46.677649,41 46,41.677649 46,42.5 l 0,0.5 -2.5,0 C 42.677649,43 42,43.677649 42,44.5 l 0,16 c 0,0.822351 0.677649,1.5 1.5,1.5 l 13,0 c 0.822351,0 1.5,-0.677649 1.5,-1.5 l 0,-3.5625 -1,1.28125 0,2.28125 c 0,0.285649 -0.214351,0.5 -0.5,0.5 l -13,0 C 43.214351,61 43,60.785649 43,60.5 l 0,-16 C 43,44.214351 43.214351,44 43.5,44 l 2.5,0 0,0.5 c 0,0.822351 0.677649,1.5 1.5,1.5 l 5,0 c 0.822351,0 1.5,-0.677649 1.5,-1.5 l 0,-0.5 2.5,0 c 0.285649,0 0.5,0.214351 0.5,0.5 L 57,50.90625 58,49.625 58,44.5 C 58,43.677649 57.322351,43 56.5,43 L 54,43 54,42.5 C 54,41.677649 53.322351,41 52.5,41 l -5,0 z m -2.5,7 0,1 9,0 0,-1 -9,0 z m 0,3 0,1 9,0 0,-1 -9,0 z m 0,3 0,1 2.125,0 1.03125,-1 L 45,54 z m 7.4375,0 1,1 0.5625,0 0,-1 -1.5625,0 z M 45,57 l 0,1 5.0625,0 -1,-1 L 45,57 z"
     id="path3832"
     inkscape:connector-curvature="0" /><path
     style="font-size:medium;font-style:normal;font-variant:normal;font-weight:normal;font-stretch:normal;text-indent:0;text-align:start;text-decoration:none;line-height:normal;letter-spacing:normal;word-spacing:normal;text-transform:none;direction:ltr;block-progression:tb;writing-mode:lr-tb;text-anchor:start;baseline-shift:baseline;color:#000000;fill:#ff0000;fill-opacity:1;stroke:none;stroke-width:2.5;marker:none;visibility:visible;display:inline;overflow:visible;enable-background:accumulate;font-family:Sans;-inkscape-font-specification:Sans"
     d="m 60.4375,48.15625 -6.71875,8.59375 -3.375,-3.40625 -1.78125,1.75 4.375,4.40625 1,1.03125 0.875,-1.125 7.59375,-9.71875 -1.96875,-1.53125 z"
     id="path3846"
     inkscape:connector-curvature="0" /><path
     inkscape:connector-curvature="0"
     id="path3856"
     d="m 5,-32 0,1 9,0 0,-1 -9,0 z"
     style="fill:#000000;fill-opacity:1" /><path
     inkscape:connector-curvature="0"
     id="path3858"
     d="M 3.5,-37 C 2.6776487,-37 2,-36.322351 2,-35.5 l 0,16 c 0,0.822351 0.6776487,1.5 1.5,1.5 l 13,0 c 0.822351,0 1.5,-0.677649 1.5,-1.5 l 0,-16 c 0,-0.822351 -0.677649,-1.5 -1.5,-1.5 l -13,0 z m 0,1 13,0 c 0.285649,0 0.5,0.214351 0.5,0.5 l 0,16 c 0,0.285649 -0.214351,0.5 -0.5,0.5 l -13,0 C 3.2143513,-19 3,-19.214351 3,-19.5 l 0,-16 C 3,-35.785649 3.2143513,-36 3.5,-36 z"
     style="font-size:medium;font-style:normal;font-variant:normal;font-weight:normal;font-stretch:normal;text-indent:0;text-align:start;text-decoration:none;line-height:normal;letter-spacing:normal;word-spacing:normal;text-transform:none;direction:ltr;block-progression:tb;writing-mode:lr-tb;text-anchor:start;baseline-shift:baseline;color:#000000;fill:#000000;fill-opacity:1;stroke:none;stroke-width:0.99999988;marker:none;visibility:visible;display:inline;overflow:visible;enable-background:accumulate;font-family:Sans;-inkscape-font-specification:Sans" /><path
     sodipodi:nodetypes="sssssssss"
     inkscape:connector-curvature="0"
     id="path3860"
     d="M 7.5,-39 C 6.6776486,-39 6,-38.322351 6,-37.5 l 0,2 c 0,0.822351 0.6776486,1.5 1.5,1.5 l 5,0 c 0.822351,0 1.5,-0.677649 1.5,-1.5 l 0,-2 c 0,-0.822351 -0.677649,-1.5 -1.5,-1.5 z"
     style="font-size:medium;font-style:normal;font-variant:normal;font-weight:normal;font-stretch:normal;text-indent:0;text-align:start;text-decoration:none;line-height:normal;letter-spacing:normal;word-spacing:normal;text-transform:none;direction:ltr;block-progression:tb;writing-mode:lr-tb;text-anchor:start;baseline-shift:baseline;color:#000000;fill:#000000;fill-opacity:1;stroke:none;stroke-width:0.99999994;marker:none;visibility:visible;display:inline;overflow:visible;enable-background:accumulate;font-family:Sans;-inkscape-font-specification:Sans" /><path
     style="fill:#000000;fill-opacity:1"
     d="m 5,-29 0,1 9,0 0,-1 -9,0 z"
     id="path3862"
     inkscape:connector-curvature="0" /><path
     inkscape:connector-curvature="0"
     id="path3864"
     d="m 5,-26 0,1 9,0 0,-1 -9,0 z"
     style="fill:#000000;fill-opacity:1" /><path
     style="fill:#000000;fill-opacity:1"
     d="m 5,-23 0,1 9,0 0,-1 -9,0 z"
     id="path3866"
     inkscape:connector-curvature="0" /><path
     style="fill:none;stroke:#ffffff;stroke-width:4.5;stroke-linecap:butt;stroke-linejoin:miter;stroke-miterlimit:4;stroke-opacity:1;stroke-dasharray:none"
     d="m 8.7425946,-26.574697 5.0875814,5.207598 7.579951,-9.72012"
     id="path3868"
     inkscape:connector-curvature="0"
     sodipodi:nodetypes="ccc" /><path
     sodipodi:nodetypes="ccc"
     inkscape:connector-curvature="0"
     id="path3870"
     d="m 9.4544128,-25.792797 4.3757632,4.425698 7.579951,-9.72012"
     style="fill:none;stroke:#000000;stroke-width:2.5;stroke-linecap:butt;stroke-linejoin:miter;stroke-miterlimit:4;stroke-opacity:1;stroke-dasharray:none" /><path
     style="fill:#ff0000;fill-opacity:1"
     d="M 47.5,1 C 46.677649,1 46,1.677649 46,2.5 L 46,3 43.5,3 C 42.677649,3 42,3.7281173 42,4.59375 l 0,16.8125 C 42,22.271882 42.677649,23 43.5,23 l 13,0 c 0.822351,0 1.5,-0.728118 1.5,-1.59375 l 0,-4.375 -1,1.28125 0,3.09375 c 0,0.300683 -0.214351,0.53125 -0.5,0.53125 l -13,0 c -0.285649,0 -0.5,-0.230567 -0.5,-0.53125 L 43,4.59375 C 43,4.2930668 43.214351,4.0625 43.5,4.0625 l 2.5,0 L 46,4.5 C 46,5.322351 46.677649,6 47.5,6 l 5,0 C 53.322351,6 54,5.322351 54,4.5 l 0,-0.4375 2.5,0 c 0.285649,0 0.5,0.2305668 0.5,0.53125 l 0,5.59375 1,-1.28125 0,-4.3125 C 58,3.7281173 57.322351,3 56.5,3 L 54,3 54,2.5 C 54,1.677649 53.322351,1 52.5,1 l -5,0 z m -2.5,7 0,1 9,0 0,-1 -9,0 z m 0,3 0,1 9,0 0,-1 -9,0 z m 0,4 0,1 3.0625,0 L 47.09375,15 45,15 z m 0,3 0,1 6,0 L 50.03125,18 45,18 z"
     id="path3887"
     inkscape:connector-curvature="0" /><path
     style="font-size:medium;font-style:normal;font-variant:normal;font-weight:normal;font-stretch:normal;text-indent:0;text-align:start;text-decoration:none;line-height:normal;letter-spacing:normal;word-spacing:normal;text-transform:none;direction:ltr;block-progression:tb;writing-mode:lr-tb;text-anchor:start;baseline-shift:baseline;color:#000000;fill:#ff0000;fill-opacity:1;stroke:none;stroke-width:2.5;marker:none;visibility:visible;display:inline;overflow:visible;enable-background:accumulate;font-family:Sans;-inkscape-font-specification:Sans"
     d="m 60.4375,7.84375 -6.71875,8.59375 -3.375,-3.40625 -1.78125,1.75 4.375,4.40625 1,1.03125 0.875,-1.125 L 62.40625,9.375 60.4375,7.84375 z"
     id="path3901"
     inkscape:connector-curvature="0" /><path
     style="font-size:medium;font-style:normal;font-variant:normal;font-weight:normal;font-stretch:normal;text-indent:0;text-align:start;text-decoration:none;line-height:normal;letter-spacing:normal;word-spacing:normal;text-transform:none;direction:ltr;block-progression:tb;writing-mode:lr-tb;text-anchor:start;baseline-shift:baseline;color:#000000;fill:#ffffff;fill-opacity:1;stroke:none;stroke-width:0.99999987999999995;marker:none;visibility:visible;display:inline;overflow:visible;enable-background:accumulate;font-family:Sans;-inkscape-font-specification:Sans"
     d="M 7.5 1 C 6.677649 1 6 1.677649 6 2.5 L 6 3 L 3.5 3 C 2.677649 3 2 3.7281173 2 4.59375 L 2 21.40625 C 2 22.271882 2.677649 23 3.5 23 L 16.5 23 C 17.322351 23 18 22.271882 18 21.40625 L 18 17.03125 L 17 18.3125 L 17 21.40625 C 17 21.706933 16.785649 21.9375 16.5 21.9375 L 3.5 21.9375 C 3.214351 21.9375 3 21.706933 3 21.40625 L 3 4.59375 C 3 4.2930668 3.214351 4.0625 3.5 4.0625 L 6 4.0625 L 6 4.5 C 6 5.322351 6.677649 6 7.5 6 L 12.5 6 C 13.322351 6 14 5.322351 14 4.5 L 14 4.0625 L 16.5 4.0625 C 16.785649 4.0625 17 4.2930668 17 4.59375 L 17 10.1875 L 18 8.90625 L 18 4.59375 C 18 3.7281173 17.322351 3 16.5 3 L 14 3 L 14 2.5 C 14 1.677649 13.322351 1 12.5 1 L 7.5 1 z M 5 9 L 5 10 L 14 10 L 14 9 L 5 9 z M 5 13 L 5 14 L 7.84375 14 L 8.875 13 L 5 13 z M 12.15625 13 L 13.125 14 L 14 14 L 14 13 L 12.15625 13 z M 5 17 L 5 18 L 10.03125 18 L 9.03125 17 L 5 17 z "
     id="path3909" /><path
     style="font-size:medium;font-style:normal;font-variant:normal;font-weight:normal;font-stretch:normal;text-indent:0;text-align:start;text-decoration:none;line-height:normal;letter-spacing:normal;word-spacing:normal;text-transform:none;direction:ltr;block-progression:tb;writing-mode:lr-tb;text-anchor:start;baseline-shift:baseline;color:#000000;fill:#ffffff;fill-opacity:1;stroke:none;stroke-width:2.50000000000000000;marker:none;visibility:visible;display:inline;overflow:visible;enable-background:accumulate;font-family:Sans;-inkscape-font-specification:Sans"
     d="m 20.96875,7.21875 -7.25,9.21875 -3.375,-3.40625 -1.78125,1.75 4.375,4.40625 1,1.03125 0.875,-1.125 L 22.9375,8.75 20.96875,7.21875 z"
     id="path3921"
     inkscape:connector-curvature="0" /><path
     style="font-size:medium;font-style:normal;font-variant:normal;font-weight:normal;font-stretch:normal;text-indent:0;text-align:start;text-decoration:none;line-height:normal;letter-spacing:normal;word-spacing:normal;text-transform:none;direction:ltr;block-progression:tb;writing-mode:lr-tb;text-anchor:start;baseline-shift:baseline;color:#000000;fill:#000000;fill-opacity:1;stroke:none;stroke-width:0.99999988;marker:none;visibility:visible;display:inline;overflow:visible;enable-background:accumulate;font-family:Sans;-inkscape-font-specification:Sans"
     d="M -36.5,3 C -37.322351,3 -38,3.7133147 -38,4.5789474 l 0,16.8421056 C -38,22.286685 -37.322351,23 -36.5,23 l 13,0 c 0.822351,0 1.5,-0.713315 1.5,-1.578947 L -22,4.5789474 C -22,3.7133147 -22.677649,3 -23.5,3 l -13,0 z m 0,1.0526316 13,0 c 0.285649,0 0.5,0.2256326 0.5,0.5263158 l 0,16.8421056 c 0,0.300683 -0.214351,0.526315 -0.5,0.526315 l -13,0 c -0.285649,0 -0.5,-0.225632 -0.5,-0.526315 l 0,-16.8421056 c 0,-0.3006832 0.214351,-0.5263158 0.5,-0.5263158 z"
     id="path3929"
     inkscape:connector-curvature="0" /><path
     style="font-size:medium;font-style:normal;font-variant:normal;font-weight:normal;font-stretch:normal;text-indent:0;text-align:start;text-decoration:none;line-height:normal;letter-spacing:normal;word-spacing:normal;text-transform:none;direction:ltr;block-progression:tb;writing-mode:lr-tb;text-anchor:start;baseline-shift:baseline;color:#000000;fill:#000000;fill-opacity:1;stroke:none;stroke-width:0.99999994;marker:none;visibility:visible;display:inline;overflow:visible;enable-background:accumulate;font-family:Sans;-inkscape-font-specification:Sans"
     d="M -32.5,1 C -33.322351,1 -34,1.677649 -34,2.5 l 0,2 c 0,0.822351 0.677649,1.5 1.5,1.5 l 5,0 c 0.822351,0 1.5,-0.677649 1.5,-1.5 l 0,-2 C -26,1.677649 -26.677649,1 -27.5,1 z"
     id="path3931"
     inkscape:connector-curvature="0"
     sodipodi:nodetypes="sssssssss" /><path
     inkscape:connector-curvature="0"
     id="path3933"
     d="m -35,9 0,1 9,0 0,-1 -9,0 z"
     style="fill:#000000;fill-opacity:1" /><path
     style="fill:#000000;fill-opacity:1"
     d="m -35,13 0,1 9,0 0,-1 -9,0 z"
     id="path3935"
     inkscape:connector-curvature="0" /><path
     inkscape:connector-curvature="0"
     id="path3937"
     d="m -35,17 0,1 9,0 0,-1 -9,0 z"
     style="fill:#000000;fill-opacity:1" /><path
     style="font-size:medium;font-style:normal;font-variant:normal;font-weight:normal;font-stretch:normal;text-indent:0;text-align:start;text-decoration:none;line-height:normal;letter-spacing:normal;word-spacing:normal;text-transform:none;direction:ltr;block-progression:tb;writing-mode:lr-tb;text-anchor:start;baseline-shift:baseline;color:#000000;fill:#ffffff;fill-opacity:1;stroke:none;stroke-width:5;marker:none;visibility:visible;display:inline;overflow:visible;enable-background:accumulate;font-family:Sans;-inkscape-font-specification:Sans"
     d="m -20.5625,7.0625 -5.8125,7.4375 -2.249814,-2.27254 -0.821839,-0.123256 -0.790599,0.02582 -2.793998,2.74498 5.0625,5.1875 1.488234,1.534741 c 0.341988,0.106169 0.638997,-0.02225 0.970293,-0.05948 L -24.1875,19.84375 -16.625,10.125 z"
     id="path3939"
     inkscape:connector-curvature="0"
     sodipodi:nodetypes="cccccccccccc" /><path
     style="fill:none;stroke:#000000;stroke-width:2.5;stroke-linecap:butt;stroke-linejoin:miter;stroke-miterlimit:4;stroke-opacity:1;stroke-dasharray:none"
     d="m -30.545587,13.894703 4.375763,4.425698 8.110281,-10.3388384"
     id="path3941"
     inkscape:connector-curvature="0"
     sodipodi:nodetypes="ccc" /></svg>