<?xml version="1.0" encoding="UTF-8" standalone="no"?>
<!-- Generator: Adobe Illustrator 16.2.1, SVG Export Plug-In . SVG Version: 6.00 Build 0)  -->

<svg
   xmlns:dc="http://purl.org/dc/elements/1.1/"
   xmlns:cc="http://creativecommons.org/ns#"
   xmlns:rdf="http://www.w3.org/1999/02/22-rdf-syntax-ns#"
   xmlns:svg="http://www.w3.org/2000/svg"
   xmlns="http://www.w3.org/2000/svg"
   xmlns:sodipodi="http://sodipodi.sourceforge.net/DTD/sodipodi-0.dtd"
   xmlns:inkscape="http://www.inkscape.org/namespaces/inkscape"
   version="1.1"
   id="Layer_1"
   x="0px"
   y="0px"
   width="24"
   height="24"
   viewBox="0 0 24 24"
   xml:space="preserve"
   inkscape:version="0.48.4 r9939"
   sodipodi:docname="results3 (copy).svg"><metadata
     id="metadata13"><rdf:RDF><cc:Work
         rdf:about=""><dc:format>image/svg+xml</dc:format><dc:type
           rdf:resource="http://purl.org/dc/dcmitype/StillImage" /><dc:title /></cc:Work></rdf:RDF></metadata><defs
     id="defs11" /><sodipodi:namedview
     pagecolor="#ffffff"
     bordercolor="#666666"
     borderopacity="1"
     objecttolerance="10"
     gridtolerance="10"
     guidetolerance="10"
     inkscape:pageopacity="0"
     inkscape:pageshadow="2"
     inkscape:window-width="1462"
     inkscape:window-height="951"
     id="namedview9"
     showgrid="false"
     inkscape:zoom="11.313709"
     inkscape:cx="16.6009"
     inkscape:cy="4.564306"
     inkscape:window-x="0"
     inkscape:window-y="25"
     inkscape:window-maximized="0"
     inkscape:current-layer="Layer_1" /><style
     type="text/css"
     id="style3">
	.st0{fill:none;}
</style><polyline
     class="st0"
     points="80,112 80,176 432,176 432,112 "
     id="polyline5"
     style="fill:none"
     transform="translate(0,-488)" /><path
     style="font-size:medium;font-style:normal;font-variant:normal;font-weight:normal;font-stretch:normal;text-indent:0;text-align:start;text-decoration:none;line-height:normal;letter-spacing:normal;word-spacing:normal;text-transform:none;direction:ltr;block-progression:tb;writing-mode:lr-tb;text-anchor:start;baseline-shift:baseline;color:#000000;fill:#ffffff;fill-opacity:1;stroke:none;stroke-width:0.99999987999999995;marker:none;visibility:visible;display:inline;overflow:visible;enable-background:accumulate;font-family:Sans;-inkscape-font-specification:Sans"
     d="M 7.5 1 C 6.677649 1 6 1.677649 6 2.5 L 6 3 L 3.5 3 C 2.677649 3 2 3.7281173 2 4.59375 L 2 21.40625 C 2 22.271882 2.677649 23 3.5 23 L 16.5 23 C 17.322351 23 18 22.271882 18 21.40625 L 18 17.03125 L 17 18.3125 L 17 21.40625 C 17 21.706933 16.785649 21.9375 16.5 21.9375 L 3.5 21.9375 C 3.214351 21.9375 3 21.706933 3 21.40625 L 3 4.59375 C 3 4.2930668 3.214351 4.0625 3.5 4.0625 L 6 4.0625 L 6 4.5 C 6 5.322351 6.677649 6 7.5 6 L 12.5 6 C 13.322351 6 14 5.322351 14 4.5 L 14 4.0625 L 16.5 4.0625 C 16.785649 4.0625 17 4.2930668 17 4.59375 L 17 10.1875 L 18 8.90625 L 18 4.59375 C 18 3.7281173 17.322351 3 16.5 3 L 14 3 L 14 2.5 C 14 1.677649 13.322351 1 12.5 1 L 7.5 1 z M 5 9 L 5 10 L 14 10 L 14 9 L 5 9 z M 5 13 L 5 14 L 7.84375 14 L 8.875 13 L 5 13 z M 12.15625 13 L 13.125 14 L 14 14 L 14 13 L 12.15625 13 z M 5 17 L 5 18 L 10.03125 18 L 9.03125 17 L 5 17 z "
     id="path3909" /><path
     style="font-size:medium;font-style:normal;font-variant:normal;font-weight:normal;font-stretch:normal;text-indent:0;text-align:start;text-decoration:none;line-height:normal;letter-spacing:normal;word-spacing:normal;text-transform:none;direction:ltr;block-progression:tb;writing-mode:lr-tb;text-anchor:start;baseline-shift:baseline;color:#000000;fill:#ffffff;fill-opacity:1;stroke:none;stroke-width:2.50000000000000000;marker:none;visibility:visible;display:inline;overflow:visible;enable-background:accumulate;font-family:Sans;-inkscape-font-specification:Sans"
     d="m 20.96875,7.21875 -7.25,9.21875 -3.375,-3.40625 -1.78125,1.75 4.375,4.40625 1,1.03125 0.875,-1.125 L 22.9375,8.75 20.96875,7.21875 z"
     id="path3921"
     inkscape:connector-curvature="0" /></svg>